<svg version="1.1" id="Layer_1" xmlns="http://www.w3.org/2000/svg" xmlns:xlink="http://www.w3.org/1999/xlink" x="0px" y="0px"
	 width="100%" viewBox="0 0 500 500" enable-background="new 0 0 500 500" xml:space="preserve">
<path fill="#2B2B2B" opacity="1.000000" stroke="none" 
	d="
M282.000000,501.000000 
	C188.000015,501.000000 94.500046,501.000000 1.000050,501.000000 
	C1.000033,334.333405 1.000033,167.666794 1.000017,1.000140 
	C167.666565,1.000093 334.333130,1.000093 500.999756,1.000046 
	C500.999847,167.666519 500.999847,334.333038 500.999939,500.999786 
	C428.166656,501.000000 355.333344,501.000000 282.000000,501.000000 
M342.385132,330.136871 
	C340.242004,330.178711 338.098846,330.220551 335.247253,330.168060 
	C334.140350,330.441833 333.033417,330.715607 332.008331,331.030273 
	C332.008331,331.030273 332.051849,330.949829 331.238892,330.768402 
	C324.619537,331.203979 319.714233,334.999146 314.820709,338.218353 
	C314.820709,336.259338 314.820709,334.300354 314.820709,331.594543 
	C309.397064,331.594543 304.380737,331.594543 299.364410,331.594543 
	C299.419830,331.243164 299.475250,330.891785 299.530670,330.540405 
	C300.149994,330.792755 300.769318,331.045074 298.731567,331.659760 
	C297.842590,331.753448 296.953644,331.847137 295.251465,331.838379 
	C293.734253,332.914093 291.424866,333.664520 290.828003,335.118134 
	C286.870453,344.756317 283.280060,354.545227 279.209015,363.555634 
	C275.474091,354.027557 271.627655,344.540771 268.074402,334.945404 
	C267.050873,332.181458 265.561798,331.336853 262.121979,331.763184 
	C258.787659,331.822266 255.453354,331.881348 251.303650,331.816803 
	C249.834763,332.193420 248.365875,332.570038 246.129700,332.889832 
	C236.726166,328.946686 227.357971,328.985779 217.271072,332.956085 
	C210.018127,334.343414 205.887650,339.589630 201.898651,344.326141 
	C201.230927,332.762268 200.445206,321.203247 199.970169,309.631439 
	C199.834595,306.328888 198.759644,305.065613 194.703033,305.499817 
	C194.119919,305.522217 193.536789,305.544647 192.520004,305.412567 
	C191.997437,305.384399 191.474869,305.356201 190.044586,305.324951 
	C188.717331,305.343231 187.373795,305.504150 186.065643,305.354919 
	C180.599045,304.731476 177.729736,306.905579 175.539886,312.251678 
	C169.148483,327.855164 161.975327,343.138428 154.666992,357.910980 
	C147.597565,342.510315 140.278305,327.216766 133.603821,311.646820 
	C131.471558,306.672729 128.758652,304.617523 122.189651,305.337769 
	C120.762650,305.415466 119.335640,305.493195 117.290184,305.414795 
	C115.203087,305.571320 113.115982,305.727844 110.795990,305.901825 
	C109.996735,319.889526 109.208824,333.460449 108.449265,347.032959 
	C107.690903,360.583984 106.960930,374.136597 106.209900,387.845764 
	C107.883415,387.845764 109.193108,387.845764 111.410057,387.979492 
	C112.933670,387.934784 114.457291,387.890076 116.837593,387.992767 
	C120.212532,388.660614 119.999519,386.432526 120.119331,384.163696 
	C120.958725,368.269287 121.881973,352.379272 123.189651,337.262878 
	C130.921280,354.207733 138.652924,371.152588 146.673203,388.730072 
	C147.825516,387.357819 148.506256,386.547150 149.693039,386.163818 
	C151.460861,389.847107 152.435379,387.405334 153.823074,386.390503 
	C156.760605,389.965668 157.050018,386.214386 157.680038,384.807404 
	C165.321213,367.743134 172.855576,350.631012 180.699097,334.495331 
	C181.532074,352.195801 182.365051,369.896271 183.209625,387.843262 
	C184.880295,387.843262 186.163254,387.843262 188.309799,387.973816 
	C192.230652,387.931244 196.151489,387.888672 200.925858,387.985260 
	C202.903961,388.221466 204.393051,388.022339 204.072861,385.349945 
	C203.865768,383.621460 204.036209,381.847778 204.614746,380.408264 
	C208.059662,384.097015 211.504181,387.786377 217.806549,388.259766 
	C224.876099,388.372833 231.945663,388.485901 239.729034,388.489838 
	C251.832397,385.939575 258.586639,377.987274 262.359314,367.275543 
	C265.624359,374.827789 268.889404,382.380035 272.402802,390.506683 
	C273.736206,388.960632 274.352753,388.245728 275.487549,388.152679 
	C276.880615,390.764038 277.920715,389.097198 279.489624,388.283051 
	C282.315033,391.505341 282.506561,388.136017 283.104065,386.698944 
	C287.413208,376.335114 291.617920,365.927826 295.984039,356.522827 
	C295.984039,366.959137 295.984039,377.395447 295.984039,387.848053 
	C297.734253,387.848053 298.890076,387.848053 300.957672,387.980774 
	C304.071198,387.936768 307.184692,387.892761 311.102325,387.984192 
	C316.329590,388.889862 314.275299,384.723114 315.578094,382.834198 
	C320.084900,384.846039 324.591736,386.857880 329.583008,389.009827 
	C329.744568,388.963531 329.906158,388.917206 330.844421,389.081360 
	C335.296753,389.067291 339.749054,389.053192 345.112000,389.138885 
	C348.169983,388.093750 351.227966,387.048615 354.868042,386.016418 
	C356.193481,386.001099 357.518921,385.985809 359.571533,386.211365 
	C368.473022,390.399811 377.593262,390.935822 387.728607,387.994690 
	C393.785095,387.949860 397.545776,384.334656 399.996857,379.409424 
	C402.362885,374.655121 402.198944,369.543640 398.726807,365.378601 
	C396.346893,362.523773 393.218323,360.188141 390.120514,358.063507 
	C386.315521,355.453827 381.984253,353.594910 378.256592,350.892670 
	C372.116364,346.441284 371.778900,342.953766 377.005981,336.839691 
	C379.658417,337.574738 382.276764,338.492432 384.972412,338.996063 
	C387.973145,339.556610 391.044312,339.740173 394.790192,340.310425 
	C395.680359,340.574188 396.570557,340.837982 397.689636,341.169586 
	C398.049561,338.467377 398.366821,336.085663 398.763824,333.105286 
	C396.121368,332.690125 393.781067,332.322449 390.697357,331.972717 
	C385.158417,331.399170 379.619446,330.825623 373.406342,330.150116 
	C367.488403,330.241577 362.202942,331.795563 357.882812,336.046997 
	C354.240906,334.348785 350.598969,332.650574 346.989899,331.030609 
	C346.989899,331.030609 347.069244,331.000610 346.630585,330.477509 
	C345.521240,330.405762 344.411865,330.334015 342.385132,330.136871 
M308.428436,320.882690 
	C313.381348,320.311371 316.120209,317.813721 315.919556,314.051392 
	C315.714905,310.215332 312.766235,308.121765 306.875488,308.095154 
	C305.449493,308.133484 304.023468,308.171844 301.876587,308.052673 
	C297.668091,307.931396 295.093231,309.943085 294.999176,314.155701 
	C294.910187,318.142303 297.013306,320.625916 302.044281,320.963348 
	C303.902710,320.867767 305.761139,320.772186 308.428436,320.882690 
M372.678436,198.122025 
	C374.080383,198.029388 375.482330,197.936768 376.621277,197.861511 
	C376.621277,186.720596 376.621277,176.137360 376.621277,165.270081 
	C374.518188,165.270081 372.723297,165.270081 370.012573,165.109543 
	C357.946289,165.055450 345.880035,165.001358 333.693512,164.024307 
	C333.693512,153.643768 333.693512,143.263229 333.693512,132.564682 
	C347.972168,132.564682 361.420044,132.564682 375.969421,132.490112 
	C376.324554,132.393661 376.679718,132.297195 377.941772,132.308792 
	C379.533142,132.237061 381.124542,132.165329 382.667267,132.095779 
	C382.667267,121.075989 382.667267,110.414642 382.667267,99.336555 
	C379.031097,99.336555 375.744171,99.336555 371.344177,99.202095 
	C345.941498,99.286980 320.538788,99.371864 294.262268,99.434372 
	C292.643799,99.434372 291.025360,99.434372 289.232483,99.434372 
	C289.232483,154.580948 289.232483,209.193100 289.232483,263.835999 
	C291.330505,263.835999 293.144104,263.835999 295.890411,263.981018 
	C323.930115,263.936310 351.969818,263.891602 380.878540,263.993286 
	C382.453796,263.918640 384.029083,263.844025 385.612305,263.769012 
	C385.612305,252.695511 385.612305,242.039246 385.612305,231.188873 
	C383.549591,231.188873 381.762390,231.188873 379.051483,231.040390 
	C363.936951,230.983063 348.822388,230.925735 333.671722,229.949875 
	C333.671722,219.547821 333.671722,209.145767 333.671722,198.316925 
	C345.060455,198.316925 355.830444,198.316925 368.799377,198.183090 
	C369.530243,198.111694 370.261108,198.040298 371.503540,198.075348 
	C371.672211,198.031967 371.840912,197.988602 372.678436,198.122025 
M239.786789,185.911728 
	C239.786789,211.851608 239.786789,237.791489 239.786789,263.833374 
	C241.918228,263.833374 243.550751,263.833374 246.089096,263.966064 
	C256.951691,263.928986 267.814301,263.891907 279.579865,264.005646 
	C281.174408,264.005646 282.768951,264.005646 284.428162,264.005646 
	C284.428162,208.006210 284.428162,152.627151 284.428162,97.110077 
	C282.294434,97.110077 280.479004,97.110077 277.791687,96.986252 
	C274.488007,97.033821 271.184296,97.081390 267.080261,96.990532 
	C264.108887,96.604866 261.904236,97.429192 259.746429,99.860382 
	C241.141037,120.823303 222.366776,141.636368 203.105621,162.080963 
	C184.698944,141.600830 166.229996,121.175957 147.955673,100.578400 
	C145.345703,97.636620 142.744370,96.233589 138.052933,96.986198 
	C134.693527,97.032913 131.334137,97.079620 127.102539,96.983719 
	C125.517113,97.058540 123.931686,97.133354 122.325592,97.209145 
	C122.325592,152.976013 122.325592,208.319092 122.325592,263.843292 
	C124.369171,263.843292 126.166542,263.843292 128.896805,263.981293 
	C139.652420,263.932251 150.408035,263.883179 162.035736,263.970734 
	C163.634247,263.970734 165.232758,263.970734 167.199036,263.970734 
	C167.199036,261.515198 167.193970,259.550110 167.199814,257.585022 
	C167.271790,233.329697 167.345337,209.074356 167.900177,185.245102 
	C177.753555,195.553009 187.606934,205.860901 197.597977,216.312820 
	C198.778976,215.110718 199.588547,214.286682 200.938065,213.911331 
	C203.266953,217.334991 204.872757,214.767731 206.925003,213.814575 
	C207.763382,214.562912 208.601761,215.311264 209.440125,216.059601 
	C208.895584,215.407776 208.351044,214.755951 207.806503,214.104126 
	C218.441025,204.394211 229.075531,194.684296 239.786789,185.911728 
M467.271851,464.965637 
	C467.641327,466.183990 468.010834,467.402344 468.594971,469.328583 
	C469.053955,464.935638 469.432098,461.316467 469.790558,457.885559 
	C465.789368,457.885559 461.580811,457.885559 457.372253,457.885559 
	C458.886414,459.330841 460.465729,459.902252 461.989227,459.779633 
	C465.364777,459.507935 466.966522,460.920410 467.271851,464.965637 
z"/>
<path fill="#E3E1DD" opacity="1.000000" stroke="none" 
	d="
M127.974731,97.126328 
	C131.334137,97.079620 134.693527,97.032913 138.639114,97.359711 
	C160.539856,121.484734 181.854416,145.236252 203.482391,169.337006 
	C204.662918,167.674042 205.412766,166.617752 206.473450,165.399078 
	C227.149734,142.534119 247.515182,119.831543 267.880615,97.128960 
	C271.184296,97.081390 274.488007,97.033821 278.241333,97.509529 
	C278.686310,153.306824 278.681610,208.580841 278.676910,263.854858 
	C267.814301,263.891907 256.951691,263.928986 245.634460,263.441803 
	C245.214325,248.452026 245.285324,233.986481 245.272659,219.521011 
	C245.260864,206.059906 245.159988,192.598862 245.129288,178.832657 
	C245.270447,176.844406 245.380661,175.161285 245.490875,173.478180 
	C245.135895,173.373611 244.780899,173.269043 244.425919,173.164459 
	C231.818130,186.518860 219.210327,199.873245 206.602539,213.227646 
	C204.872757,214.767731 203.266953,217.334991 200.491425,213.416992 
	C189.126205,201.578827 178.207626,190.234970 167.118576,178.594604 
	C165.345261,176.564224 163.742416,174.830353 161.163651,172.040771 
	C161.163651,203.759445 161.163651,233.796783 161.163651,263.834137 
	C150.408035,263.883179 139.652420,263.932251 128.429688,263.453735 
	C127.966614,207.659546 127.970673,152.392929 127.974731,97.126328 
z"/>
<path fill="#E2E1DD" opacity="1.000000" stroke="none" 
	d="
M370.991974,197.968903 
	C370.261108,198.040298 369.530243,198.111694 367.653931,198.238419 
	C353.762665,198.293747 341.016785,198.293747 328.122375,198.293747 
	C328.122375,209.402039 328.122375,219.995773 328.122375,230.868408 
	C330.139374,230.868408 331.923615,230.868408 333.707855,230.868408 
	C348.822388,230.925735 363.936951,230.983063 379.523254,231.571045 
	C379.999847,242.683426 380.004700,253.265182 380.009521,263.846924 
	C351.969818,263.891602 323.930115,263.936310 295.424042,263.450409 
	C294.957733,222.093140 294.943237,181.266449 294.966034,140.439804 
	C294.973694,126.778763 295.076691,113.117767 295.136108,99.456749 
	C320.538788,99.371864 345.941498,99.286980 372.135406,99.293518 
	C376.014313,99.016373 377.324799,100.063782 377.232635,103.481224 
	C376.974670,113.049225 377.075562,122.626892 377.034851,132.200745 
	C376.679718,132.297195 376.324554,132.393661 375.100891,132.472260 
	C358.891998,132.454391 343.551605,132.454391 328.159485,132.454391 
	C328.159485,143.665634 328.159485,154.231140 328.159485,164.947266 
	C330.230835,164.947266 332.022278,164.947266 333.813751,164.947266 
	C345.880035,165.001358 357.946289,165.055450 370.503967,165.401443 
	C370.995392,165.693344 371.195892,166.072098 371.148132,166.298828 
	C371.100342,166.525543 371.207581,166.976379 371.137939,167.441864 
	C371.114716,177.610107 371.161163,187.312866 371.133850,197.249481 
	C371.060089,197.483307 370.991974,197.968903 370.991974,197.968903 
z"/>
<path fill="#E0DFDD" opacity="1.000000" stroke="none" 
	d="
M200.072342,387.846069 
	C196.151489,387.888672 192.230652,387.931244 187.845337,387.450470 
	C186.331512,364.178436 185.282135,341.429749 184.232773,318.681061 
	C183.824203,318.621552 183.415634,318.562012 183.007080,318.502472 
	C181.997208,321.059692 180.987320,323.616913 179.730286,326.404358 
	C170.822571,346.313232 162.162018,365.991882 153.501465,385.670563 
	C152.435379,387.405334 151.460861,389.847107 149.377289,385.595642 
	C139.445541,363.634247 129.829529,342.240967 120.213516,320.847717 
	C119.844223,320.990448 119.474922,321.133179 119.105629,321.275879 
	C119.105629,323.752045 119.105629,326.228210 119.049011,329.151489 
	C117.988564,349.014160 116.984734,368.429779 115.980904,387.845337 
	C114.457291,387.890076 112.933670,387.934784 110.997421,387.455078 
	C112.027901,361.226715 113.464485,335.522430 114.927010,309.819611 
	C115.039497,307.842712 114.226143,305.094635 117.908638,305.570892 
	C119.335640,305.493195 120.762650,305.415466 123.102081,305.445801 
	C125.445755,306.835999 127.462158,307.841736 128.218521,309.442780 
	C136.649048,327.288055 144.884903,345.225311 153.274109,363.445160 
	C153.980072,365.043274 154.585175,366.333984 155.486969,368.257507 
	C163.939377,348.926910 172.285370,330.455078 180.035294,311.736481 
	C182.327484,306.200043 185.482147,304.385376 191.171219,305.517395 
	C191.906540,305.488464 192.430115,305.527771 192.953674,305.567078 
	C193.536789,305.544647 194.119919,305.522217 195.191498,306.050720 
	C196.157379,316.007111 196.539032,325.418823 197.146652,334.815887 
	C197.536606,340.846893 198.259399,346.856415 198.929657,353.343872 
	C199.350647,360.486359 199.674973,367.160522 199.659576,374.065552 
	C199.570663,378.812927 199.821503,383.329498 200.072342,387.846069 
z"/>
<path fill="#DFDEDD" opacity="1.000000" stroke="none" 
	d="
M394.084808,340.087860 
	C391.044312,339.740173 387.973145,339.556610 384.972412,338.996063 
	C382.276764,338.492432 379.658417,337.574738 376.321716,336.561127 
	C374.089722,336.959778 372.106262,337.244171 371.075531,338.387482 
	C367.930054,341.876434 368.379547,346.382721 372.726959,349.658386 
	C377.338593,353.133026 382.571136,355.776215 387.481232,358.864166 
	C393.039795,362.359863 397.496216,366.590485 397.261871,373.912994 
	C397.035614,380.982727 392.591522,384.848969 386.930420,387.849884 
	C377.593262,390.935822 368.473022,390.399811 358.970581,385.932678 
	C357.008392,385.770508 355.647186,385.886993 354.285950,386.003479 
	C351.227966,387.048615 348.169983,388.093750 344.279907,389.063385 
	C338.987793,388.948883 334.527802,388.909882 330.067780,388.870880 
	C329.906158,388.917206 329.744568,388.963531 329.192627,388.631195 
	C319.585815,384.256653 313.677643,377.574219 312.326904,367.428009 
	C311.868744,363.986389 311.999359,360.466339 311.936646,356.593872 
	C313.460785,343.636108 320.637787,335.612000 332.051849,330.949829 
	C332.051849,330.949829 332.008331,331.030273 332.352936,331.017456 
	C333.720245,330.956879 334.742950,330.909088 336.235535,330.901550 
	C338.907379,330.899261 341.109344,330.856720 343.688477,330.794861 
	C345.066833,330.850586 346.068054,330.925598 347.069244,331.000610 
	C347.069244,331.000610 346.989899,331.030609 347.140747,331.290985 
	C350.489563,334.100464 353.687531,336.649597 356.978241,339.524231 
	C357.870941,341.471558 358.670898,343.093445 359.791962,345.366333 
	C361.088531,336.279419 366.071533,331.752655 374.080505,330.252045 
	C379.619446,330.825623 385.158417,331.399170 391.353577,332.290771 
	C396.402466,334.075012 393.257568,337.632477 394.084808,340.087860 
M322.614716,353.376495 
	C330.802704,353.559784 338.990692,353.743073 347.954926,353.818512 
	C348.958649,353.095184 350.757935,352.453400 350.841705,351.635773 
	C351.591461,344.319885 343.410339,336.664734 335.491547,337.302368 
	C335.491547,337.302368 335.195190,337.312805 334.444244,337.058044 
	C332.575806,337.912811 329.937592,338.263702 328.985504,339.718231 
	C326.297638,343.824677 324.301666,348.384003 322.614716,353.376495 
M321.798248,358.575653 
	C322.643677,363.101105 322.792999,367.915131 324.518127,372.075867 
	C326.488129,376.827240 329.981354,380.834839 336.597626,381.074799 
	C337.094330,381.426300 337.591003,381.777802 338.711609,382.581604 
	C341.779602,382.455933 344.847626,382.330292 348.645844,382.035095 
	C349.391968,381.963867 350.138062,381.892609 351.481018,381.813629 
	C351.986206,381.269562 352.491394,380.725494 353.655518,380.122528 
	C355.974609,380.454834 358.308075,380.709351 360.609802,381.135406 
	C365.682190,382.074249 370.738556,383.099579 376.656433,384.176270 
	C381.381470,384.185059 385.345642,382.535370 386.851868,377.834900 
	C388.482666,372.745667 385.442535,369.330353 381.549774,366.589111 
	C380.332855,365.732239 379.007141,365.031677 377.764191,364.209686 
	C372.086548,360.455231 366.420624,356.683044 361.020569,353.096588 
	C361.143372,353.817780 361.415680,355.417267 361.311249,357.153137 
	C361.311249,357.153137 360.923065,357.053802 360.000671,357.008789 
	C353.253601,356.999664 346.504944,356.896423 339.759949,357.009735 
	C333.876862,357.108551 327.997894,357.451477 321.798248,358.575653 
M360.471619,349.006134 
	C360.579071,348.755768 360.705902,348.510712 360.776733,348.250397 
	C360.790100,348.201202 360.580688,348.091431 360.474091,348.009613 
	C360.389801,348.270325 360.305511,348.531036 360.471619,349.006134 
z"/>
<path fill="#E0DFDD" opacity="1.000000" stroke="none" 
	d="
M239.015228,388.598938 
	C231.945663,388.485901 224.876099,388.372833 217.309097,387.783295 
	C203.968231,379.599762 201.573334,367.731995 203.531967,354.091766 
	C204.883698,344.678253 210.608261,338.333710 218.026321,333.139343 
	C227.357971,328.985779 236.726166,328.946686 246.691925,333.208191 
	C254.187286,340.166473 258.176910,348.131805 258.178467,358.318878 
	C257.547638,371.970734 252.714584,382.387207 239.434952,387.296021 
	C239.170624,387.393707 239.149704,388.149933 239.015228,388.598938 
M230.600922,384.992218 
	C236.682922,385.377197 240.252365,381.529388 242.676895,376.903229 
	C248.730118,365.353271 248.090973,353.531586 242.398117,342.069946 
	C240.434036,338.115601 237.010071,335.276031 231.220200,336.062012 
	C230.757614,336.092316 230.295029,336.122620 229.253830,335.919891 
	C224.213425,335.273773 221.787735,339.055756 219.406540,342.251068 
	C212.486740,351.536591 212.351135,369.685974 218.860657,379.241119 
	C221.458862,383.054932 224.951172,385.314423 230.600922,384.992218 
z"/>
<path fill="#E0DFDD" opacity="1.000000" stroke="none" 
	d="
M296.064697,331.940826 
	C296.953644,331.847137 297.842590,331.753448 300.066040,331.484131 
	C304.170715,331.478241 306.940948,331.648041 310.452271,331.863220 
	C310.452271,336.884125 310.452271,341.488831 310.436676,346.545227 
	C310.447296,350.318420 310.473511,353.639954 310.393005,357.420349 
	C310.328064,363.914459 310.369843,369.949707 310.390442,376.446930 
	C310.345581,380.555511 310.321899,384.202148 310.298218,387.848755 
	C307.184692,387.892761 304.071198,387.936768 300.500427,387.455536 
	C300.043152,370.075531 300.043152,353.220795 300.043152,336.366028 
	C299.732178,336.302673 299.421204,336.239319 299.110199,336.175964 
	C298.021698,339.221954 296.933197,342.267914 295.605713,345.538330 
	C289.909973,359.796265 284.453247,373.829712 278.996521,387.863190 
	C277.920715,389.097198 276.880615,390.764038 275.199829,387.499023 
	C267.314423,368.543732 259.716705,350.242065 252.119019,331.940430 
	C255.453354,331.881348 258.787659,331.822266 262.589050,332.236572 
	C267.978760,344.872528 272.901428,357.035095 277.890808,369.537231 
	C278.379150,371.095154 278.800751,372.313446 279.720337,374.970673 
	C285.484650,359.794952 290.774658,345.867889 296.064697,331.940826 
z"/>
<path fill="#F905F9" opacity="1.000000" stroke="none" 
	d="
M127.538635,97.055023 
	C127.970673,152.392929 127.966614,207.659546 127.963242,263.384705 
	C126.166542,263.843292 124.369171,263.843292 122.325592,263.843292 
	C122.325592,208.319092 122.325592,152.976013 122.325592,97.209145 
	C123.931686,97.133354 125.517113,97.058540 127.538635,97.055023 
z"/>
<path fill="#03F2F2" opacity="1.000000" stroke="none" 
	d="
M279.128387,263.930237 
	C278.681610,208.580841 278.686310,153.306824 278.677277,97.571442 
	C280.479004,97.110077 282.294434,97.110077 284.428162,97.110077 
	C284.428162,152.627151 284.428162,208.006210 284.428162,264.005646 
	C282.768951,264.005646 281.174408,264.005646 279.128387,263.930237 
z"/>
<path fill="#FE04FE" opacity="1.000000" stroke="none" 
	d="
M294.699158,99.445557 
	C295.076691,113.117767 294.973694,126.778763 294.966034,140.439804 
	C294.943237,181.266449 294.957733,222.093140 294.957703,263.377899 
	C293.144104,263.835999 291.330505,263.835999 289.232483,263.835999 
	C289.232483,209.193100 289.232483,154.580948 289.232483,99.434372 
	C291.025360,99.434372 292.643799,99.434372 294.699158,99.445557 
z"/>
<path fill="#0BFEFD" opacity="1.000000" stroke="none" 
	d="
M161.599701,263.902435 
	C161.163651,233.796783 161.163651,203.759445 161.163651,172.040771 
	C163.742416,174.830353 165.345261,176.564224 167.074005,179.022629 
	C167.272751,181.437790 167.345627,183.128403 167.418488,184.819031 
	C167.345337,209.074356 167.271790,233.329697 167.199814,257.585022 
	C167.193970,259.550110 167.199036,261.515198 167.199036,263.970734 
	C165.232758,263.970734 163.634247,263.970734 161.599701,263.902435 
z"/>
<path fill="#09F8F8" opacity="1.000000" stroke="none" 
	d="
M206.162598,165.561493 
	C205.412766,166.617752 204.662918,167.674042 203.482391,169.337006 
	C181.854416,145.236252 160.539856,121.484734 139.090240,97.431610 
	C142.744370,96.233589 145.345703,97.636620 147.955673,100.578400 
	C166.229996,121.175957 184.698944,141.600830 203.545624,162.568634 
	C204.711304,163.891357 205.436966,164.726425 206.162598,165.561493 
z"/>
<path fill="#F808F8" opacity="1.000000" stroke="none" 
	d="
M206.473450,165.399094 
	C205.436966,164.726425 204.711304,163.891357 203.814255,162.775223 
	C222.366776,141.636368 241.141037,120.823303 259.746429,99.860382 
	C261.904236,97.429192 264.108887,96.604866 267.480438,97.059746 
	C247.515182,119.831543 227.149734,142.534119 206.473450,165.399094 
z"/>
<path fill="#FF00FF" opacity="1.000000" stroke="none" 
	d="
M245.098358,179.137802 
	C245.159988,192.598862 245.260864,206.059906 245.272659,219.521011 
	C245.285324,233.986481 245.214325,248.452026 245.181549,263.375458 
	C243.550751,263.833374 241.918228,263.833374 239.786789,263.833374 
	C239.786789,237.791489 239.786789,211.851608 239.908875,185.131073 
	C241.720078,182.612885 243.409225,180.875351 245.098358,179.137802 
z"/>
<path fill="#09F8F8" opacity="1.000000" stroke="none" 
	d="
M117.599411,305.492859 
	C114.226143,305.094635 115.039497,307.842712 114.927010,309.819611 
	C113.464485,335.522430 112.027901,361.226715 110.543793,387.388184 
	C109.193108,387.845764 107.883415,387.845764 106.209900,387.845764 
	C106.960930,374.136597 107.690903,360.583984 108.449265,347.032959 
	C109.208824,333.460449 109.996735,319.889526 110.795990,305.901825 
	C113.115982,305.727844 115.203087,305.571320 117.599411,305.492859 
z"/>
<path fill="#0AF8F9" opacity="1.000000" stroke="none" 
	d="
M179.977448,326.174133 
	C180.987320,323.616913 181.997208,321.059692 183.007080,318.502472 
	C183.415634,318.562012 183.824203,318.621552 184.232773,318.681061 
	C185.282135,341.429749 186.331512,364.178436 187.413559,387.385193 
	C186.163254,387.843262 184.880295,387.843262 183.209625,387.843262 
	C182.365051,369.896271 181.532074,352.195801 180.602112,333.776062 
	C180.329239,330.762573 180.153336,328.468353 179.977448,326.174133 
z"/>
<path fill="#0AF8F9" opacity="1.000000" stroke="none" 
	d="
M119.105629,328.704376 
	C119.105629,326.228210 119.105629,323.752045 119.105629,321.275879 
	C119.474922,321.133179 119.844223,320.990448 120.213516,320.847717 
	C129.829529,342.240967 139.445541,363.634247 149.124268,385.381958 
	C148.506256,386.547150 147.825516,387.357819 146.673203,388.730072 
	C138.652924,371.152588 130.921280,354.207733 122.897186,336.651642 
	C121.438354,333.595062 120.271988,331.149719 119.105629,328.704376 
z"/>
<path fill="#09F8F8" opacity="1.000000" stroke="none" 
	d="
M190.959457,305.585632 
	C185.482147,304.385376 182.327484,306.200043 180.035294,311.736481 
	C172.285370,330.455078 163.939377,348.926910 155.486969,368.257507 
	C154.585175,366.333984 153.980072,365.043274 153.517456,363.238892 
	C154.142853,361.332581 154.625717,359.939911 155.108597,358.547241 
	C161.975327,343.138428 169.148483,327.855164 175.539886,312.251678 
	C177.729736,306.905579 180.599045,304.731476 186.065643,305.354919 
	C187.373795,305.504150 188.717331,305.343231 190.498459,305.390930 
	C190.952332,305.456909 190.959457,305.585632 190.959457,305.585632 
z"/>
<path fill="#0AF8F9" opacity="1.000000" stroke="none" 
	d="
M245.129303,178.832657 
	C243.409225,180.875351 241.720078,182.612885 239.870483,184.662415 
	C229.075531,194.684296 218.441025,204.394211 207.806503,214.104126 
	C208.351044,214.755951 208.895584,215.407776 209.440125,216.059601 
	C208.601761,215.311264 207.763382,214.562912 206.763763,213.521118 
	C219.210327,199.873245 231.818130,186.518860 244.425919,173.164459 
	C244.780899,173.269043 245.135895,173.373611 245.490875,173.478180 
	C245.380661,175.161285 245.270447,176.844406 245.129303,178.832657 
z"/>
<path fill="#F60AF7" opacity="1.000000" stroke="none" 
	d="
M179.730286,326.404358 
	C180.153336,328.468353 180.329239,330.762573 180.461441,333.294067 
	C172.855576,350.631012 165.321213,367.743134 157.680038,384.807404 
	C157.050018,386.214386 156.760605,389.965668 153.662262,386.030518 
	C162.162018,365.991882 170.822571,346.313232 179.730286,326.404358 
z"/>
<path fill="#F60AF7" opacity="1.000000" stroke="none" 
	d="
M154.887787,358.229126 
	C154.625717,359.939911 154.142853,361.332581 153.416626,362.931519 
	C144.884903,345.225311 136.649048,327.288055 128.218521,309.442780 
	C127.462158,307.841736 125.445755,306.835999 123.812622,305.543671 
	C128.758652,304.617523 131.471558,306.672729 133.603821,311.646820 
	C140.278305,327.216766 147.597565,342.510315 154.887787,358.229126 
z"/>
<path fill="#F808F8" opacity="1.000000" stroke="none" 
	d="
M119.049011,329.151489 
	C120.271988,331.149719 121.438354,333.595062 122.691551,336.264130 
	C121.881973,352.379272 120.958725,368.269287 120.119331,384.163696 
	C119.999519,386.432526 120.212532,388.660614 116.409248,387.919067 
	C116.984734,368.429779 117.988564,349.014160 119.049011,329.151489 
z"/>
<path fill="#03F2F2" opacity="1.000000" stroke="none" 
	d="
M333.753632,164.485779 
	C332.022278,164.947266 330.230835,164.947266 328.159485,164.947266 
	C328.159485,154.231140 328.159485,143.665634 328.159485,132.454391 
	C343.551605,132.454391 358.891998,132.454391 374.550171,132.509537 
	C361.420044,132.564682 347.972168,132.564682 333.693512,132.564682 
	C333.693512,143.263229 333.693512,153.643768 333.753632,164.485779 
z"/>
<path fill="#03F2F2" opacity="1.000000" stroke="none" 
	d="
M333.689789,230.409149 
	C331.923615,230.868408 330.139374,230.868408 328.122375,230.868408 
	C328.122375,219.995773 328.122375,209.402039 328.122375,198.293747 
	C341.016785,198.293747 353.762665,198.293747 366.554474,198.305328 
	C355.830444,198.316925 345.060455,198.316925 333.671722,198.316925 
	C333.671722,209.145767 333.671722,219.547821 333.689789,230.409149 
z"/>
<path fill="#0AF8F9" opacity="1.000000" stroke="none" 
	d="
M217.648697,333.047729 
	C210.608261,338.333710 204.883698,344.678253 203.531967,354.091766 
	C201.573334,367.731995 203.968231,379.599762 216.949982,387.616089 
	C211.504181,387.786377 208.059662,384.097015 204.201935,379.927155 
	C202.525848,377.575592 201.262573,375.705139 199.999298,373.834717 
	C199.674973,367.160522 199.350647,360.486359 199.097107,353.034546 
	C200.140747,349.918915 201.113617,347.580872 202.086487,345.242859 
	C205.887650,339.589630 210.018127,334.343414 217.648697,333.047729 
z"/>
<path fill="#F60AF7" opacity="1.000000" stroke="none" 
	d="
M387.329529,387.922302 
	C392.591522,384.848969 397.035614,380.982727 397.261871,373.912994 
	C397.496216,366.590485 393.039795,362.359863 387.481232,358.864166 
	C382.571136,355.776215 377.338593,353.133026 372.726959,349.658386 
	C368.379547,346.382721 367.930054,341.876434 371.075531,338.387482 
	C372.106262,337.244171 374.089722,336.959778 375.922302,336.486328 
	C371.778900,342.953766 372.116364,346.441284 378.256592,350.892670 
	C381.984253,353.594910 386.315521,355.453827 390.120514,358.063507 
	C393.218323,360.188141 396.346893,362.523773 398.726807,365.378601 
	C402.198944,369.543640 402.362885,374.655121 399.996857,379.409424 
	C397.545776,384.334656 393.785095,387.949860 387.329529,387.922302 
z"/>
<path fill="#0FF6F8" opacity="1.000000" stroke="none" 
	d="
M251.711334,331.878601 
	C259.716705,350.242065 267.314423,368.543732 274.940735,387.188110 
	C274.352753,388.245728 273.736206,388.960632 272.402802,390.506683 
	C268.889404,382.380035 265.624359,374.827789 262.076233,366.642731 
	C260.601318,363.298340 259.409485,360.586792 258.217651,357.875214 
	C258.176910,348.131805 254.187286,340.166473 247.075562,333.236603 
	C248.365875,332.570038 249.834763,332.193420 251.711334,331.878601 
z"/>
<path fill="#0AF8F9" opacity="1.000000" stroke="none" 
	d="
M377.488312,132.254761 
	C377.075562,122.626892 376.974670,113.049225 377.232635,103.481224 
	C377.324799,100.063782 376.014313,99.016373 372.691956,99.360748 
	C375.744171,99.336555 379.031097,99.336555 382.667267,99.336555 
	C382.667267,110.414642 382.667267,121.075989 382.667267,132.095779 
	C381.124542,132.165329 379.533142,132.237061 377.488312,132.254761 
z"/>
<path fill="#F60AF7" opacity="1.000000" stroke="none" 
	d="
M167.659332,185.032074 
	C167.345627,183.128403 167.272751,181.437790 167.244476,179.319138 
	C178.207626,190.234970 189.126205,201.578827 200.221451,213.192657 
	C199.588547,214.286682 198.778976,215.110718 197.597977,216.312820 
	C187.606934,205.860901 177.753555,195.553009 167.659332,185.032074 
z"/>
<path fill="#03F2F2" opacity="1.000000" stroke="none" 
	d="
M371.195892,166.072098 
	C371.195892,166.072098 370.995392,165.693344 370.961914,165.481720 
	C372.723297,165.270081 374.518188,165.270081 376.621277,165.270081 
	C376.621277,176.137360 376.621277,186.720596 376.621277,197.861511 
	C375.482330,197.936768 374.080383,198.029388 372.238312,197.855911 
	C371.636932,197.361786 371.440063,197.170410 371.207611,197.015640 
	C371.161163,187.312866 371.114716,177.610107 371.235474,167.341553 
	C371.533661,166.492950 371.464722,166.258392 371.195892,166.072098 
z"/>
<path fill="#03F7F7" opacity="1.000000" stroke="none" 
	d="
M380.444031,263.920105 
	C380.004700,253.265182 379.999847,242.683426 379.985107,231.645279 
	C381.762390,231.188873 383.549591,231.188873 385.612305,231.188873 
	C385.612305,242.039246 385.612305,252.695511 385.612305,263.769012 
	C384.029083,263.844025 382.453796,263.918640 380.444031,263.920105 
z"/>
<path fill="#03F7F7" opacity="1.000000" stroke="none" 
	d="
M295.844696,345.313904 
	C296.933197,342.267914 298.021698,339.221954 299.110199,336.175964 
	C299.421204,336.239319 299.732178,336.302673 300.043152,336.366028 
	C300.043152,353.220795 300.043152,370.075531 300.044495,387.389160 
	C298.890076,387.848053 297.734253,387.848053 295.984039,387.848053 
	C295.984039,377.395447 295.984039,366.959137 295.976013,355.611328 
	C295.926880,351.571167 295.885773,348.442535 295.844696,345.313904 
z"/>
<path fill="#F808F8" opacity="1.000000" stroke="none" 
	d="
M201.992554,344.784485 
	C201.113617,347.580872 200.140747,349.918915 199.000427,352.566223 
	C198.259399,346.856415 197.536606,340.846893 197.146652,334.815887 
	C196.539032,325.418823 196.157379,316.007111 195.609756,306.187073 
	C198.759644,305.065613 199.834595,306.328888 199.970169,309.631439 
	C200.445206,321.203247 201.230927,332.762268 201.992554,344.784485 
z"/>
<path fill="#09F8F8" opacity="1.000000" stroke="none" 
	d="
M295.658081,331.889587 
	C290.774658,345.867889 285.484650,359.794952 279.720337,374.970673 
	C278.800751,372.313446 278.379150,371.095154 278.016937,369.180786 
	C278.574280,367.084839 279.072205,365.684967 279.570160,364.285095 
	C283.280060,354.545227 286.870453,344.756317 290.828003,335.118134 
	C291.424866,333.664520 293.734253,332.914093 295.658081,331.889587 
z"/>
<path fill="#F60AF7" opacity="1.000000" stroke="none" 
	d="
M295.605713,345.538330 
	C295.885773,348.442535 295.926880,351.571167 295.911835,355.117065 
	C291.617920,365.927826 287.413208,376.335114 283.104065,386.698944 
	C282.506561,388.136017 282.315033,391.505341 279.243073,388.073120 
	C284.453247,373.829712 289.909973,359.796265 295.605713,345.538330 
z"/>
<path fill="#F60AF7" opacity="1.000000" stroke="none" 
	d="
M279.389587,363.920349 
	C279.072205,365.684967 278.574280,367.084839 277.950226,368.841187 
	C272.901428,357.035095 267.978760,344.872528 262.977722,332.342529 
	C265.561798,331.336853 267.050873,332.181458 268.074402,334.945404 
	C271.627655,344.540771 275.474091,354.027557 279.389587,363.920349 
z"/>
<path fill="#DFDEDD" opacity="1.000000" stroke="none" 
	d="
M302.597473,308.210175 
	C304.023468,308.171844 305.449493,308.133484 307.525177,308.420715 
	C312.934357,313.230103 312.808105,315.942291 307.619568,320.676636 
	C305.761139,320.772186 303.902710,320.867767 301.612915,320.526703 
	C297.787689,314.079163 297.976288,312.496826 302.597473,308.210175 
z"/>
<path fill="#F60AF7" opacity="1.000000" stroke="none" 
	d="
M258.178467,358.318878 
	C259.409485,360.586792 260.601318,363.298340 261.840546,366.278931 
	C258.586639,377.987274 251.832397,385.939575 239.372131,388.544373 
	C239.149704,388.149933 239.170624,387.393707 239.434952,387.296021 
	C252.714584,382.387207 257.547638,371.970734 258.178467,358.318878 
z"/>
<path fill="#25F3F5" opacity="1.000000" stroke="none" 
	d="
M310.411621,375.984955 
	C310.369843,369.949707 310.328064,363.914459 310.619904,357.416809 
	C311.255646,356.975067 311.558075,356.984314 311.860901,356.982147 
	C311.999359,360.466339 311.868744,363.986389 312.326904,367.428009 
	C313.677643,377.574219 319.585815,384.256653 328.950378,388.561157 
	C324.591736,386.857880 320.084900,384.846039 315.078156,382.415283 
	C313.189362,379.992584 311.800476,377.988770 310.411621,375.984955 
z"/>
<path fill="#0FF6F8" opacity="1.000000" stroke="none" 
	d="
M311.936646,356.593872 
	C311.558075,356.984314 311.255646,356.975067 310.726624,356.957947 
	C310.473511,353.639954 310.447296,350.318420 310.576813,346.262390 
	C312.139435,343.377655 313.546326,341.227417 314.953217,339.077148 
	C319.714233,334.999146 324.619537,331.203979 331.645386,330.859131 
	C320.637787,335.612000 313.460785,343.636108 311.936646,356.593872 
z"/>
<path fill="#F60AF7" opacity="1.000000" stroke="none" 
	d="
M314.886963,338.647766 
	C313.546326,341.227417 312.139435,343.377655 310.592407,345.810730 
	C310.452271,341.488831 310.452271,336.884125 310.452271,331.863220 
	C306.940948,331.648041 304.170715,331.478241 301.394592,331.302917 
	C300.769318,331.045074 300.149994,330.792755 299.530670,330.540405 
	C299.475250,330.891785 299.419830,331.243164 299.364410,331.594543 
	C304.380737,331.594543 309.397064,331.594543 314.820709,331.594543 
	C314.820709,334.300354 314.820709,336.259338 314.886963,338.647766 
z"/>
<path fill="#0FF6F8" opacity="1.000000" stroke="none" 
	d="
M373.743408,330.201080 
	C366.071533,331.752655 361.088531,336.279419 359.791962,345.366333 
	C358.670898,343.093445 357.870941,341.471558 357.148560,339.281555 
	C357.600647,338.029419 357.975189,337.345428 358.349731,336.661438 
	C362.202942,331.795563 367.488403,330.241577 373.743408,330.201080 
z"/>
<path fill="#F60AF7" opacity="1.000000" stroke="none" 
	d="
M308.023987,320.779663 
	C312.808105,315.942291 312.934357,313.230103 307.946625,308.487396 
	C312.766235,308.121765 315.714905,310.215332 315.919556,314.051392 
	C316.120209,317.813721 313.381348,320.311371 308.023987,320.779663 
z"/>
<path fill="#0C63B2" opacity="1.000000" stroke="none" 
	d="
M467.178223,464.590698 
	C466.966522,460.920410 465.364777,459.507935 461.989227,459.779633 
	C460.465729,459.902252 458.886414,459.330841 457.372253,457.885559 
	C461.580811,457.885559 465.789368,457.885559 469.790558,457.885559 
	C469.432098,461.316467 469.053955,464.935638 468.594971,469.328583 
	C468.010834,467.402344 467.641327,466.183990 467.178223,464.590698 
z"/>
<path fill="#09F8F8" opacity="1.000000" stroke="none" 
	d="
M302.237030,308.131409 
	C297.976288,312.496826 297.787689,314.079163 301.215088,320.468323 
	C297.013306,320.625916 294.910187,318.142303 294.999176,314.155701 
	C295.093231,309.943085 297.668091,307.931396 302.237030,308.131409 
z"/>
<path fill="#F808F8" opacity="1.000000" stroke="none" 
	d="
M199.659576,374.065552 
	C201.262573,375.705139 202.525848,377.575592 203.913300,379.770203 
	C204.036209,381.847778 203.865768,383.621460 204.072861,385.349945 
	C204.393051,388.022339 202.903961,388.221466 200.499100,387.915649 
	C199.821503,383.329498 199.570663,378.812927 199.659576,374.065552 
z"/>
<path fill="#F60AF7" opacity="1.000000" stroke="none" 
	d="
M310.390442,376.446930 
	C311.800476,377.988770 313.189362,379.992584 314.764893,382.227448 
	C314.275299,384.723114 316.329590,388.889862 310.700256,387.916473 
	C310.321899,384.202148 310.345581,380.555511 310.390442,376.446930 
z"/>
<path fill="#F60AF7" opacity="1.000000" stroke="none" 
	d="
M394.437500,340.199158 
	C393.257568,337.632477 396.402466,334.075012 391.725281,332.281799 
	C393.781067,332.322449 396.121368,332.690125 398.763824,333.105286 
	C398.366821,336.085663 398.049561,338.467377 397.689636,341.169586 
	C396.570557,340.837982 395.680359,340.574188 394.437500,340.199158 
z"/>
<path fill="#F60AF7" opacity="1.000000" stroke="none" 
	d="
M358.116272,336.354218 
	C357.975189,337.345428 357.600647,338.029419 357.055786,338.956085 
	C353.687531,336.649597 350.489563,334.100464 347.124329,331.251862 
	C350.598969,332.650574 354.240906,334.348785 358.116272,336.354218 
z"/>
<path fill="#DBDBDC" opacity="1.000000" stroke="none" 
	d="
M330.456116,388.976135 
	C334.527802,388.909882 338.987793,388.948883 343.824585,389.013489 
	C339.749054,389.053192 335.296753,389.067291 330.456116,388.976135 
z"/>
<path fill="#DBDBDC" opacity="1.000000" stroke="none" 
	d="
M343.311310,330.814148 
	C341.109344,330.856720 338.907379,330.899261 336.285339,330.752808 
	C335.865265,330.563843 335.955719,330.262421 335.955719,330.262390 
	C338.098846,330.220551 340.242004,330.178711 342.842346,330.337585 
	C343.299591,330.538269 343.311310,330.814148 343.311310,330.814148 
z"/>
<path fill="#DBDBDC" opacity="1.000000" stroke="none" 
	d="
M354.576996,386.009949 
	C355.647186,385.886993 357.008392,385.770508 358.606995,385.812256 
	C357.518921,385.985809 356.193481,386.001099 354.576996,386.009949 
z"/>
<path fill="#0FF6F8" opacity="1.000000" stroke="none" 
	d="
M335.601501,330.215240 
	C335.955719,330.262421 335.865265,330.563843 335.815460,330.712585 
	C334.742950,330.909088 333.720245,330.956879 332.312012,330.997009 
	C333.033417,330.715607 334.140350,330.441833 335.601501,330.215240 
z"/>
<path fill="#F60AF7" opacity="1.000000" stroke="none" 
	d="
M343.688477,330.794861 
	C343.311310,330.814148 343.299591,330.538269 343.301056,330.400269 
	C344.411865,330.334015 345.521240,330.405762 346.849915,330.739075 
	C346.068054,330.925598 345.066833,330.850586 343.688477,330.794861 
z"/>
<path fill="#F808F8" opacity="1.000000" stroke="none" 
	d="
M191.171219,305.517395 
	C190.959457,305.585632 190.952332,305.456909 190.952316,305.392456 
	C191.474869,305.356201 191.997437,305.384399 192.736847,305.489807 
	C192.430115,305.527771 191.906540,305.488464 191.171219,305.517395 
z"/>
<path fill="#03F7F7" opacity="1.000000" stroke="none" 
	d="
M371.133850,197.249481 
	C371.440063,197.170410 371.636932,197.361786 371.903870,197.767517 
	C371.840912,197.988602 371.672211,198.031967 371.247742,198.022125 
	C370.991974,197.968903 371.060089,197.483307 371.133850,197.249481 
z"/>
<path fill="#03F7F7" opacity="1.000000" stroke="none" 
	d="
M371.148132,166.298828 
	C371.464722,166.258392 371.533661,166.492950 371.305115,166.876068 
	C371.207581,166.976379 371.100342,166.525543 371.148132,166.298828 
z"/>
<path fill="#2D2C2E" opacity="1.000000" stroke="none" 
	d="
M338.087677,382.129333 
	C337.591003,381.777802 337.094330,381.426300 336.205078,380.644897 
	C327.688385,374.965881 325.664185,366.928101 326.129913,357.883728 
	C328.446198,357.780823 330.277832,357.793793 332.108154,357.750946 
	C341.713318,357.526337 351.318115,357.287628 360.923065,357.053802 
	C360.923065,357.053802 361.311249,357.153137 361.694183,357.311279 
	C367.041718,360.446777 372.160889,363.197174 376.937317,366.450775 
	C385.662384,372.394165 385.135376,379.209137 375.801453,384.089630 
	C370.738556,383.099579 365.682190,382.074249 360.609802,381.135406 
	C358.308075,380.709351 355.974609,380.454834 353.032166,380.126862 
	C351.900604,380.694580 351.392395,381.257935 350.884155,381.821350 
	C350.138062,381.892609 349.391968,381.963867 347.843109,382.036804 
	C344.056152,382.068787 341.071899,382.099060 338.087677,382.129333 
z"/>
<path fill="#2D2C2E" opacity="1.000000" stroke="none" 
	d="
M335.195190,337.312805 
	C335.195190,337.312805 335.491547,337.302368 335.863708,337.564209 
	C343.579926,340.352020 346.169647,346.104370 346.256958,353.268005 
	C339.262726,353.217865 332.715424,353.151367 326.247925,352.676697 
	C329.283508,347.283295 332.239349,342.298065 335.195190,337.312805 
z"/>
<path fill="#0FF6F8" opacity="1.000000" stroke="none" 
	d="
M376.228943,384.132935 
	C385.135376,379.209137 385.662384,372.394165 376.937317,366.450775 
	C372.160889,363.197174 367.041718,360.446777 361.882568,357.243103 
	C361.415680,355.417267 361.143372,353.817780 361.020569,353.096588 
	C366.420624,356.683044 372.086548,360.455231 377.764191,364.209686 
	C379.007141,365.031677 380.332855,365.732239 381.549774,366.589111 
	C385.442535,369.330353 388.482666,372.745667 386.851868,377.834900 
	C385.345642,382.535370 381.381470,384.185059 376.228943,384.132935 
z"/>
<path fill="#F60AF7" opacity="1.000000" stroke="none" 
	d="
M325.644653,357.973816 
	C325.664185,366.928101 327.688385,374.965881 335.919373,380.528564 
	C329.981354,380.834839 326.488129,376.827240 324.518127,372.075867 
	C322.792999,367.915131 322.643677,363.101105 322.304993,358.159973 
	C323.756042,357.820801 324.700348,357.897308 325.644653,357.973816 
z"/>
<path fill="#0FF6F8" opacity="1.000000" stroke="none" 
	d="
M346.703888,353.251617 
	C346.169647,346.104370 343.579926,340.352020 336.011932,337.566681 
	C343.410339,336.664734 351.591461,344.319885 350.841705,351.635773 
	C350.757935,352.453400 348.958649,353.095184 347.455750,353.698364 
	C346.956543,353.578217 346.703888,353.251617 346.703888,353.251617 
z"/>
<path fill="#F60AF7" opacity="1.000000" stroke="none" 
	d="
M334.819702,337.185425 
	C332.239349,342.298065 329.283508,347.283295 325.906128,352.759399 
	C324.334076,353.088470 323.183563,352.926666 322.033020,352.764862 
	C324.301666,348.384003 326.297638,343.824677 328.985504,339.718231 
	C329.937592,338.263702 332.575806,337.912811 334.819702,337.185425 
z"/>
<path fill="#DBDBDC" opacity="1.000000" stroke="none" 
	d="
M326.129913,357.883728 
	C324.700348,357.897308 323.756042,357.820801 322.464417,357.715424 
	C327.997894,357.451477 333.876862,357.108551 339.759949,357.009735 
	C346.504944,356.896423 353.253601,356.999664 360.461853,357.031311 
	C351.318115,357.287628 341.713318,357.526337 332.108154,357.750946 
	C330.277832,357.793793 328.446198,357.780823 326.129913,357.883728 
z"/>
<path fill="#DBDBDC" opacity="1.000000" stroke="none" 
	d="
M322.323853,353.070679 
	C323.183563,352.926666 324.334076,353.088470 325.826385,353.167542 
	C332.715424,353.151367 339.262726,353.217865 346.256958,353.268005 
	C346.703888,353.251617 346.956543,353.578217 347.067627,353.752289 
	C338.990692,353.743073 330.802704,353.559784 322.323853,353.070679 
z"/>
<path fill="#DBDBDC" opacity="1.000000" stroke="none" 
	d="
M338.399658,382.355469 
	C341.071899,382.099060 344.056152,382.068787 347.477997,382.121582 
	C344.847626,382.330292 341.779602,382.455933 338.399658,382.355469 
z"/>
<path fill="#DBDBDC" opacity="1.000000" stroke="none" 
	d="
M360.346436,348.898926 
	C360.305511,348.531036 360.389801,348.270325 360.474060,348.009613 
	C360.580688,348.091431 360.790100,348.201202 360.776733,348.250397 
	C360.705902,348.510712 360.579071,348.755768 360.346436,348.898926 
z"/>
<path fill="#DBDBDC" opacity="1.000000" stroke="none" 
	d="
M351.182587,381.817474 
	C351.392395,381.257935 351.900604,380.694580 352.702698,380.156311 
	C352.491394,380.725494 351.986206,381.269562 351.182587,381.817474 
z"/>
<path fill="#2D2C2E" opacity="1.000000" stroke="none" 
	d="
M229.832443,336.152893 
	C230.295029,336.122620 230.757614,336.092316 231.735825,336.406677 
	C234.725357,339.257324 238.166458,341.337341 239.492691,344.348785 
	C243.550018,353.561646 243.973145,363.319427 240.625061,372.883240 
	C238.803146,378.087646 235.787460,382.704681 229.698700,384.455566 
	C227.148056,382.388458 224.319366,380.857849 222.837051,378.485840 
	C214.677948,365.429657 218.081009,345.708527 229.832443,336.152893 
z"/>
<path fill="#F60AF7" opacity="1.000000" stroke="none" 
	d="
M229.543137,336.036407 
	C218.081009,345.708527 214.677948,365.429657 222.837051,378.485840 
	C224.319366,380.857849 227.148056,382.388458 229.637817,384.558411 
	C229.920471,384.809296 229.766998,384.992493 229.766998,384.992493 
	C224.951172,385.314423 221.458862,383.054932 218.860657,379.241119 
	C212.351135,369.685974 212.486740,351.536591 219.406540,342.251068 
	C221.787735,339.055756 224.213425,335.273773 229.543137,336.036407 
z"/>
<path fill="#09F8F8" opacity="1.000000" stroke="none" 
	d="
M230.183960,384.992371 
	C229.766998,384.992493 229.920471,384.809296 229.981354,384.706482 
	C235.787460,382.704681 238.803146,378.087646 240.625061,372.883240 
	C243.973145,363.319427 243.550018,353.561646 239.492691,344.348785 
	C238.166458,341.337341 234.725357,339.257324 232.081055,336.454468 
	C237.010071,335.276031 240.434036,338.115601 242.398117,342.069946 
	C248.090973,353.531586 248.730118,365.353271 242.676895,376.903229 
	C240.252365,381.529388 236.682922,385.377197 230.183960,384.992371 
z"/>
</svg>