<?xml version="1.0" standalone="no"?>
<!DOCTYPE svg PUBLIC "-//W3C//DTD SVG 20010904//EN"
 "http://www.w3.org/TR/2001/REC-SVG-20010904/DTD/svg10.dtd">
<svg version="1.0" xmlns="http://www.w3.org/2000/svg"
 width="500.000000pt" height="500.000000pt" viewBox="0 0 500.000000 500.000000"
 preserveAspectRatio="xMidYMid meet">
<metadata>
Created by potrace 1.14, written by Peter Selinger 2001-2017
</metadata>
<g transform="translate(0.000000,500.000000) scale(0.100000,-0.100000)"
fill="#000000" stroke="none">
<path d="M0 2500 l0 -2500 2500 0 2500 0 0 2500 0 2500 -2500 0 -2500 0 0
-2500z m1744 1196 l309 -344 309 344 310 344 84 0 84 0 0 -835 0 -835 -200 0
-200 0 -1 423 0 422 -178 -183 c-157 -163 -179 -182 -190 -168 -13 15 -15 15
-31 1 -16 -15 -31 -2 -199 172 l-181 188 0 -427 0 -428 -195 0 -195 0 0 835 0
835 83 0 82 0 309 -344z m2039 318 l37 -7 0 -157 0 -157 -46 -7 c-26 -3 -138
-6 -250 -6 l-204 0 0 -160 0 -160 220 0 220 0 0 -165 0 -165 -217 -2 -218 -3
-3 -162 -2 -163 265 0 265 0 0 -165 0 -165 -455 0 -455 0 0 825 0 825 403 0
c221 0 419 -3 440 -6z m-2523 -2071 c4 -4 62 -129 130 -278 67 -148 125 -273
129 -277 4 -5 63 120 131 276 l124 284 43 7 c24 3 63 3 88 -1 l45 -6 1 -52 c0
-28 6 -141 13 -251 l12 -200 16 55 c42 136 142 203 303 204 86 1 102 -3 178
-42 4 -2 4 3 1 12 -5 14 5 16 69 16 l75 0 75 -187 c42 -106 78 -181 81 -173 3
8 34 92 69 185 l64 170 44 5 c24 3 68 3 97 2 l52 -4 0 -61 0 -61 36 43 c47 54
116 89 195 97 82 8 140 -8 188 -51 l38 -34 33 34 c22 23 49 38 83 46 55 13
161 7 227 -12 35 -11 40 -16 36 -33 -3 -12 -6 -29 -6 -38 0 -23 -52 -18 -137
14 -63 23 -63 23 -82 3 -11 -11 -23 -32 -26 -46 -9 -37 38 -88 128 -137 121
-67 164 -129 146 -211 -9 -42 -62 -97 -108 -113 -54 -18 -187 -15 -253 6 -52
17 -60 17 -105 3 -75 -24 -128 -28 -199 -17 -79 13 -112 28 -159 76 l-35 35 0
-51 0 -50 -75 0 -75 0 -2 213 -3 212 -83 -210 c-93 -238 -98 -247 -111 -226
-8 12 -12 12 -25 2 -13 -11 -17 -7 -31 26 -8 21 -39 93 -68 161 l-52 124 -7
-55 c-13 -101 -60 -174 -142 -222 -82 -47 -233 -53 -313 -12 -52 28 -105 95
-123 156 -4 14 -5 -18 -2 -71 l5 -98 -87 0 -86 0 -1 63 c-1 105 -25 536 -30
541 -3 3 -65 -130 -138 -294 -73 -165 -138 -303 -143 -306 -6 -4 -14 -1 -18 6
-5 9 -9 9 -14 1 -4 -6 -11 -11 -15 -11 -4 0 -68 133 -141 295 -73 162 -135
294 -137 292 -2 -3 -32 -535 -33 -584 0 -2 -23 -3 -50 -3 l-50 0 5 53 c3 28
12 185 20 347 21 412 22 418 48 424 31 6 128 -1 137 -11z m1829 -39 c12 -15
21 -32 21 -39 0 -7 -9 -24 -21 -39 -27 -34 -98 -37 -129 -6 -47 47 -10 110 64
110 36 0 48 -5 65 -26z"/>
<path d="M2243 1640 c-70 -43 -106 -122 -107 -235 -1 -138 47 -229 126 -241
29 -5 41 -1 71 25 61 54 82 111 81 221 -1 76 -5 105 -24 148 -35 80 -95 114
-147 82z"/>
<path d="M3271 1603 c-17 -20 -37 -56 -45 -80 l-15 -43 126 0 125 0 -7 28
c-11 44 -39 85 -75 109 -47 33 -73 29 -109 -14z"/>
<path d="M3386 1433 l-179 -3 6 -55 c7 -68 37 -123 84 -155 31 -21 48 -25 107
-24 39 0 91 4 115 7 31 5 47 3 53 -6 6 -9 8 -9 8 1 0 9 8 8 32 -4 17 -9 57
-18 87 -21 51 -5 60 -3 89 22 37 31 42 70 16 111 -20 30 -196 135 -221 132
-10 -1 -98 -4 -197 -5z"/>
</g>
</svg>
